<svg width="2804" height="784" viewBox="0 0 2804 784" fill="none" xmlns="http://www.w3.org/2000/svg">
<g clip-path="url(#clip0_463:42)">
<path d="M1114.89 388.98C1107.96 388.98 1101.53 387.165 1095.59 383.535C1089.65 379.905 1084.93 375.087 1081.43 369.081C1078 363.009 1076.28 356.508 1076.28 349.578C1076.28 342.714 1078.03 336.312 1081.53 330.372C1085.03 324.366 1089.75 319.614 1095.69 316.116C1101.63 312.552 1108.06 310.77 1114.99 310.77C1121.99 310.77 1128.42 312.519 1134.3 316.017C1140.17 319.515 1144.82 324.267 1148.25 330.273C1151.75 336.213 1153.5 342.648 1153.5 349.578C1153.5 356.706 1151.75 363.306 1148.25 369.378C1144.82 375.384 1140.14 380.169 1134.2 383.733C1128.32 387.231 1121.89 388.98 1114.89 388.98ZM1114.89 386.109C1121.23 386.109 1127.1 384.492 1132.51 381.258C1137.93 377.958 1142.22 373.536 1145.38 367.992C1148.62 362.382 1150.23 356.31 1150.23 349.776C1150.23 343.308 1148.65 337.302 1145.48 331.758C1142.31 326.214 1138.02 321.825 1132.61 318.591C1127.2 315.291 1121.33 313.641 1114.99 313.641C1108.59 313.641 1102.68 315.291 1097.27 318.591C1091.86 321.825 1087.53 326.214 1084.3 331.758C1081.13 337.302 1079.55 343.308 1079.55 349.776C1079.55 356.31 1081.13 362.382 1084.3 367.992C1087.53 373.536 1091.86 377.958 1097.27 381.258C1102.68 384.492 1108.56 386.109 1114.89 386.109Z" fill="black"/>
<path d="M1170.4 315.621H1153.27V312.75H1190.6V315.621H1173.67V387H1170.4V315.621Z" fill="black"/>
<path d="M1257.09 388.98C1250.16 388.98 1243.79 387.297 1237.99 383.931C1232.18 380.499 1227.56 375.813 1224.13 369.873C1220.76 363.867 1219.08 357.135 1219.08 349.677C1219.08 342.483 1220.83 335.916 1224.32 329.976C1227.89 324.036 1232.61 319.35 1238.48 315.918C1244.42 312.486 1250.72 310.77 1257.39 310.77C1262.01 310.77 1265.67 311.199 1268.38 312.057C1271.09 312.849 1274.22 314.268 1277.78 316.314V319.977C1274.42 317.667 1271.28 316.05 1268.38 315.126C1265.54 314.136 1261.98 313.641 1257.69 313.641C1251.15 313.641 1245.18 315.324 1239.77 318.69C1234.42 321.99 1230.17 326.445 1227 332.055C1223.9 337.599 1222.34 343.572 1222.34 349.974C1222.34 356.442 1223.93 362.448 1227.1 367.992C1230.26 373.536 1234.46 377.958 1239.67 381.258C1244.95 384.492 1250.63 386.109 1256.7 386.109C1261.05 386.109 1264.85 385.614 1268.08 384.624C1271.32 383.568 1274.55 381.951 1277.78 379.773V383.436C1274.62 385.35 1271.35 386.736 1267.98 387.594C1264.68 388.518 1261.05 388.98 1257.09 388.98Z" fill="black"/>
<path d="M1303.24 315.621H1286.11V312.75H1323.44V315.621H1306.51V387H1303.24V315.621Z" fill="black"/>
<path d="M1386.99 312.75L1349.76 387H1346.2L1355.11 369.081L1325.51 312.75H1329.07L1356.99 365.715L1383.42 312.75H1386.99Z" fill="black"/>
<path d="M1373.16 384.129H1378.6L1414.34 311.067L1450.08 384.129H1454.83V396.603H1451.76V387H1376.03V396.603H1373.16V384.129ZM1446.71 384.129L1414.04 317.898L1381.67 384.129H1446.71Z" fill="black"/>
<path d="M1466.07 312.75H1492.7V315.621H1469.34V356.013H1488.84V358.884H1469.34V384.129H1492.7V387H1466.07V312.75Z" fill="black"/>
<path d="M1503.1 312.75H1506.37V355.815H1557.25V312.75H1560.52V387H1557.25V358.686H1506.37V387H1503.1V312.75Z" fill="black"/>
<path d="M1587.57 315.621H1570.45V312.75H1607.77V315.621H1590.84V387H1587.57V315.621Z" fill="black"/>
<path d="M1647.21 388.98C1640.28 388.98 1633.84 387.165 1627.9 383.535C1621.96 379.905 1617.25 375.087 1613.75 369.081C1610.32 363.009 1608.6 356.508 1608.6 349.578C1608.6 342.714 1610.35 336.312 1613.85 330.372C1617.34 324.366 1622.06 319.614 1628 316.116C1633.94 312.552 1640.38 310.77 1647.31 310.77C1654.3 310.77 1660.74 312.519 1666.61 316.017C1672.49 319.515 1677.14 324.267 1680.57 330.273C1684.07 336.213 1685.82 342.648 1685.82 349.578C1685.82 356.706 1684.07 363.306 1680.57 369.378C1677.14 375.384 1672.45 380.169 1666.51 383.733C1660.64 387.231 1654.21 388.98 1647.21 388.98ZM1647.21 386.109C1653.55 386.109 1659.42 384.492 1664.83 381.258C1670.24 377.958 1674.53 373.536 1677.7 367.992C1680.94 362.382 1682.55 356.31 1682.55 349.776C1682.55 343.308 1680.97 337.302 1677.8 331.758C1674.63 326.214 1670.34 321.825 1664.93 318.591C1659.52 315.291 1653.64 313.641 1647.31 313.641C1640.91 313.641 1635 315.291 1629.59 318.591C1624.18 321.825 1619.85 326.214 1616.62 331.758C1613.45 337.302 1611.87 343.308 1611.87 349.776C1611.87 356.31 1613.45 362.382 1616.62 367.992C1619.85 373.536 1624.18 377.958 1629.59 381.258C1635 384.492 1640.87 386.109 1647.21 386.109Z" fill="black"/>
<path d="M1699.26 312.75H1702.43C1707.64 312.75 1711.47 313.971 1713.91 316.413C1716.36 318.789 1717.58 322.32 1717.58 327.006C1717.58 329.712 1716.79 332.319 1715.2 334.827C1713.62 337.269 1711.7 338.919 1709.46 339.777C1715.14 340.701 1719.52 343.077 1722.63 346.905C1725.73 350.733 1727.28 355.749 1727.28 361.953C1727.28 366.903 1726.19 371.292 1724.01 375.12C1721.83 378.882 1718.83 381.819 1715 383.931C1711.24 385.977 1707.05 387 1702.43 387H1699.26V312.75ZM1703.22 338.886C1706.39 338.886 1709.06 337.731 1711.24 335.421C1713.42 333.111 1714.51 330.273 1714.51 326.907C1714.51 323.145 1713.58 320.307 1711.74 318.393C1709.95 316.479 1707.12 315.522 1703.22 315.522H1702.43V338.886H1703.22ZM1703.22 384.228C1707.12 384.228 1710.65 383.304 1713.82 381.456C1716.98 379.542 1719.49 376.902 1721.34 373.536C1723.19 370.17 1724.11 366.375 1724.11 362.151C1724.11 355.353 1722.3 350.238 1718.67 346.806C1715.1 343.308 1709.95 341.559 1703.22 341.559H1702.43V384.228H1703.22Z" fill="black"/>
<path d="M1174.96 504.98C1168.03 504.98 1161.66 503.297 1155.86 499.931C1150.05 496.499 1145.43 491.813 1142 485.873C1138.63 479.867 1136.95 473.135 1136.95 465.677C1136.95 458.483 1138.7 451.916 1142.19 445.976C1145.76 440.036 1150.48 435.35 1156.35 431.918C1162.29 428.486 1168.59 426.77 1175.26 426.77C1179.88 426.77 1183.54 427.199 1186.25 428.057C1188.96 428.849 1192.09 430.268 1195.65 432.314V435.977C1192.29 433.667 1189.15 432.05 1186.25 431.126C1183.41 430.136 1179.85 429.641 1175.56 429.641C1169.02 429.641 1163.05 431.324 1157.64 434.69C1152.29 437.99 1148.04 442.445 1144.87 448.055C1141.77 453.599 1140.21 459.572 1140.21 465.974C1140.21 472.442 1141.8 478.448 1144.97 483.992C1148.13 489.536 1152.33 493.958 1157.54 497.258C1162.82 500.492 1168.5 502.109 1174.57 502.109C1178.92 502.109 1182.72 501.614 1185.95 500.624C1189.19 499.568 1192.42 497.951 1195.65 495.773V499.436C1192.49 501.35 1189.22 502.736 1185.85 503.594C1182.55 504.518 1178.92 504.98 1174.96 504.98Z" fill="black"/>
<path d="M1221.11 431.621H1203.98V428.75H1241.31V431.621H1224.38V503H1221.11V431.621Z" fill="black"/>
<path d="M1304.86 428.75L1267.63 503H1264.07L1272.98 485.081L1243.38 428.75H1246.94L1274.86 481.715L1301.29 428.75H1304.86Z" fill="black"/>
<path d="M1291.03 500.129H1296.47L1332.21 427.067L1367.95 500.129H1372.7V512.603H1369.63V503H1293.9V512.603H1291.03V500.129ZM1364.58 500.129L1331.91 433.898L1299.54 500.129H1364.58Z" fill="black"/>
<path d="M1383.94 428.75H1410.57V431.621H1387.21V472.013H1406.71V474.884H1387.21V500.129H1410.57V503H1383.94V428.75Z" fill="black"/>
<path d="M1420.97 428.75H1424.24V471.815H1475.12V428.75H1478.39V503H1475.12V474.686H1424.24V503H1420.97V428.75Z" fill="black"/>
<path d="M1505.45 431.621H1488.32V428.75H1525.64V431.621H1508.71V503H1505.45V431.621Z" fill="black"/>
<path d="M1597.49 503H1594.03L1579.97 474.686H1540.57L1526.81 503H1523.34L1560.37 426.968L1597.49 503ZM1578.78 471.815L1560.17 434.096L1541.95 471.815H1578.78Z" fill="black"/>
<path d="M1684.66 428.75V503H1681.39V433.502L1646.35 504.386L1611.5 432.611V503H1608.23V428.75H1612.88L1646.35 497.654L1680.11 428.75H1684.66Z" fill="black"/>
<path fill-rule="evenodd" clip-rule="evenodd" d="M3136 362H1727V359H3136V362Z" fill="black"/>
<path fill-rule="evenodd" clip-rule="evenodd" d="M1141 470L-88 470L-88 467L1141 467L1141 470Z" fill="black"/>
</g>
<defs>
<clipPath id="clip0_463:42">
<rect width="2804" height="784" fill="white"/>
</clipPath>
</defs>
</svg>
