<svg width="1281" height="53" viewBox="0 0 1281 53" fill="none" xmlns="http://www.w3.org/2000/svg">
<path fill-rule="evenodd" clip-rule="evenodd" d="M0.492185 52.7131L0.492188 0.716797L1.49219 0.716797L1.49219 52.7131L0.492185 52.7131Z" fill="black"/>
<path fill-rule="evenodd" clip-rule="evenodd" d="M1279.33 52.7131L1279.33 0.716797L1280.33 0.716797L1280.33 52.7131L1279.33 52.7131Z" fill="black"/>
<path fill-rule="evenodd" clip-rule="evenodd" d="M655.508 52.7131L655.508 0.716797L656.508 0.716797L656.508 52.7131L655.508 52.7131Z" fill="black"/>
<path fill-rule="evenodd" clip-rule="evenodd" d="M623.293 52.7131L623.293 0.716797L624.293 0.716797L624.293 52.7131L623.293 52.7131Z" fill="black"/>
<path d="M649.165 8.02539V23.8381H630.861V8.02539H624.143V46.2395H630.861V29.3726H649.165V46.2395H655.883V8.02539H649.165Z" fill="black"/>
<path d="M309.387 29.4009C309.387 31.2551 308.21 31.8244 306.975 31.8244C306.031 31.8244 305.464 31.3281 305.464 30.5835C305.464 29.5031 306.99 29.1381 309.387 28.9045V29.4009ZM306.684 32.8756C308.08 32.8756 308.879 32.423 309.358 31.6054C309.373 32.0726 309.416 32.3938 309.46 32.6858H310.797C310.637 31.9412 310.579 31.0507 310.594 29.7221L310.608 27.9118C310.623 25.6927 309.664 24.6707 307.498 24.6707C305.987 24.6707 304.476 25.6197 304.359 27.3132H305.725C305.784 26.335 306.408 25.7511 307.513 25.7511C308.501 25.7511 309.286 26.2182 309.286 27.6636V27.8534C306.089 28.2038 303.996 28.7585 303.996 30.6127C303.996 32.058 305.217 32.8756 306.684 32.8756Z" fill="black"/>
<path d="M316.473 24.8021C316.313 24.7875 316.212 24.7875 316.081 24.7875C315.049 24.8313 314.264 25.3131 313.872 26.2036V24.8313H312.579V32.6858H313.901V28.5688C313.901 26.8314 314.511 26.1598 315.732 26.1598C315.95 26.1598 316.197 26.1744 316.473 26.2182V24.8021Z" fill="black"/>
<path d="M318.122 24.8313H316.887V25.897H318.122V30.7149C318.122 32.35 318.471 32.6858 319.968 32.6858H320.927V31.5762H320.258C319.503 31.5762 319.444 31.3719 319.444 30.5543V25.897H320.927V24.8313H319.444V22.8604H318.122V24.8313Z" fill="black"/>
<path d="M951.596 25.3751V32.61H952.828V25.3751H951.596ZM951.596 22.8604V24.3396H952.828V22.8604H951.596Z" fill="black"/>
<path d="M960.243 27.4864C960.013 26.1013 958.956 25.2406 957.371 25.2406C955.759 25.2406 954.459 25.9802 954.459 27.2578C954.459 28.616 955.543 29.0463 956.531 29.2615L957.615 29.4766C958.401 29.6515 959.092 29.9339 959.092 30.6735C959.092 31.3593 958.333 31.7493 957.398 31.7493C956.315 31.7493 955.746 31.1979 955.543 30.27H954.242C954.391 31.5341 955.461 32.7848 957.371 32.7848C959.038 32.7848 960.338 31.9779 960.338 30.539C960.338 29.1539 959.173 28.6294 957.845 28.3874L956.816 28.1856C956.112 28.0377 955.705 27.7822 955.705 27.204C955.705 26.545 956.518 26.2895 957.236 26.2895C958.103 26.2895 958.753 26.6257 958.956 27.4864H960.243Z" fill="black"/>
<path d="M962.253 25.3751H961.102V26.3568H962.253V30.7945C962.253 32.3007 962.579 32.61 963.974 32.61H964.868V31.5879H964.245C963.54 31.5879 963.486 31.3997 963.486 30.6466V26.3568H964.868V25.3751H963.486V23.5596H962.253V25.3751Z" fill="black"/>
<path d="M967.08 29.0194C967.08 27.0426 968.137 26.3299 969.261 26.3299C970.386 26.3299 971.442 27.0829 971.442 29.0194C971.442 30.8752 970.386 31.709 969.261 31.709C968.137 31.709 967.08 30.9559 967.08 29.0194ZM969.261 25.254C967.568 25.254 965.766 26.3971 965.766 29.0194C965.766 31.6417 967.568 32.7848 969.261 32.7848C970.955 32.7848 972.756 31.6417 972.756 29.0194C972.756 26.3971 970.955 25.254 969.261 25.254Z" fill="black"/>
<path d="M977.861 25.3482C977.712 25.3347 977.618 25.3347 977.496 25.3347C976.534 25.3751 975.802 25.8189 975.437 26.6392V25.3751H974.231V32.61H975.464V28.8177C975.464 27.2174 976.033 26.5988 977.171 26.5988C977.374 26.5988 977.604 26.6123 977.861 26.6526V25.3482Z" fill="black"/>
<path d="M983.097 25.3751L981.295 30.9559L979.439 25.3751H978.071L980.699 32.61L980.645 32.7579C980.32 33.8875 979.927 33.9413 979.114 33.9413H978.613V34.9633H979.25C980.889 34.9633 981.241 34.4792 981.783 32.9192L984.384 25.3751H983.097Z" fill="black"/>
</svg>
