<svg width="1281" height="53" viewBox="0 0 1281 53" fill="none" xmlns="http://www.w3.org/2000/svg">
<path fill-rule="evenodd" clip-rule="evenodd" d="M0.523435 52.008L0.523438 0.0117187L1.52344 0.0117188L1.52344 52.008L0.523435 52.008Z" fill="black"/>
<path fill-rule="evenodd" clip-rule="evenodd" d="M1279.36 52.008L1279.36 0.0117187L1280.36 0.0117188L1280.36 52.008L1279.36 52.008Z" fill="black"/>
<path fill-rule="evenodd" clip-rule="evenodd" d="M655.539 52.008L655.539 0.0117187L656.539 0.0117188L656.539 52.008L655.539 52.008Z" fill="black"/>
<path fill-rule="evenodd" clip-rule="evenodd" d="M623.324 52.008L623.324 0.0117187L624.324 0.0117188L624.324 52.008L623.324 52.008Z" fill="black"/>
<path d="M649.194 7.32031V23.1331H630.89V7.32031H624.172V45.5344H630.89V28.6675H649.194V45.5344H655.913V7.32031H649.194Z" fill="black"/>
<path d="M309.419 28.6958C309.419 30.55 308.242 31.1194 307.006 31.1194C306.062 31.1194 305.495 30.623 305.495 29.8784C305.495 28.798 307.021 28.4331 309.419 28.1995V28.6958ZM306.716 32.1705C308.111 32.1705 308.91 31.7179 309.39 30.9004C309.404 31.3676 309.448 31.6887 309.491 31.9807H310.828C310.668 31.2362 310.61 30.3456 310.625 29.017L310.639 27.2067C310.654 24.9876 309.695 23.9656 307.53 23.9656C306.018 23.9656 304.507 24.9146 304.391 26.6081H305.757C305.815 25.63 306.44 25.046 307.544 25.046C308.532 25.046 309.317 25.5132 309.317 26.9585V27.1483C306.12 27.4987 304.027 28.0535 304.027 29.9076C304.027 31.353 305.248 32.1705 306.716 32.1705Z" fill="black"/>
<path d="M316.504 24.097C316.344 24.0824 316.243 24.0824 316.112 24.0824C315.08 24.1262 314.295 24.608 313.903 25.4986V24.1262H312.61V31.9807H313.932V27.8637C313.932 26.1263 314.543 25.4548 315.763 25.4548C315.981 25.4548 316.228 25.4694 316.504 25.5132V24.097Z" fill="black"/>
<path d="M318.153 24.1262H316.918V25.192H318.153V30.0098C318.153 31.6449 318.502 31.9807 319.999 31.9807H320.958V30.8712H320.289C319.534 30.8712 319.476 30.6668 319.476 29.8492V25.192H320.958V24.1262H319.476V22.1553H318.153V24.1262Z" fill="black"/>
<path d="M951.625 24.67V31.9049H952.858V24.67H951.625ZM951.625 22.1553V23.6345H952.858V22.1553H951.625Z" fill="black"/>
<path d="M960.273 26.7813C960.042 25.3962 958.986 24.5355 957.401 24.5355C955.789 24.5355 954.488 25.2751 954.488 26.5527C954.488 27.9109 955.572 28.3412 956.561 28.5564L957.644 28.7716C958.43 28.9464 959.121 29.2288 959.121 29.9684C959.121 30.6542 958.362 31.0442 957.428 31.0442C956.344 31.0442 955.775 30.4929 955.572 29.565H954.271C954.42 30.8291 955.491 32.0797 957.401 32.0797C959.067 32.0797 960.367 31.2728 960.367 29.8339C960.367 28.4488 959.202 27.9243 957.875 27.6823L956.845 27.4806C956.141 27.3326 955.734 27.0771 955.734 26.4989C955.734 25.8399 956.547 25.5844 957.265 25.5844C958.132 25.5844 958.782 25.9206 958.986 26.7813H960.273Z" fill="black"/>
<path d="M962.283 24.67H961.131V25.6517H962.283V30.0894C962.283 31.5956 962.608 31.9049 964.003 31.9049H964.897V30.8828H964.274C963.57 30.8828 963.516 30.6946 963.516 29.9415V25.6517H964.897V24.67H963.516V22.8546H962.283V24.67Z" fill="black"/>
<path d="M967.11 28.3143C967.11 26.3375 968.166 25.6248 969.291 25.6248C970.415 25.6248 971.472 26.3779 971.472 28.3143C971.472 30.1701 970.415 31.0039 969.291 31.0039C968.166 31.0039 967.11 30.2508 967.11 28.3143ZM969.291 24.549C967.597 24.549 965.796 25.692 965.796 28.3143C965.796 30.9366 967.597 32.0797 969.291 32.0797C970.984 32.0797 972.786 30.9366 972.786 28.3143C972.786 25.692 970.984 24.549 969.291 24.549Z" fill="black"/>
<path d="M977.891 24.6431C977.742 24.6297 977.647 24.6297 977.525 24.6297C976.563 24.67 975.832 25.1138 975.466 25.9341V24.67H974.26V31.9049H975.493V28.1126C975.493 26.5123 976.062 25.8937 977.2 25.8937C977.403 25.8937 977.633 25.9072 977.891 25.9475V24.6431Z" fill="black"/>
<path d="M983.126 24.67L981.324 30.2508L979.468 24.67H978.1L980.728 31.9049L980.674 32.0528C980.349 33.1824 979.956 33.2362 979.143 33.2362H978.642V34.2582H979.279C980.918 34.2582 981.27 33.7741 981.812 32.2142L984.413 24.67H983.126Z" fill="black"/>
</svg>
